<?xml version="1.0" encoding="utf-8"?>
<!-- Generator: Adobe Illustrator 27.5.0, SVG Export Plug-In . SVG Version: 6.00 Build 0)  -->
<svg version="1.1" xmlns="http://www.w3.org/2000/svg" xmlns:xlink="http://www.w3.org/1999/xlink" x="0px" y="0px"
	 viewBox="0 0 500 500" style="enable-background:new 0 0 500 500;" xml:space="preserve">
<g id="Sparkles">
	<g id="Layer-13_1_">
		<g>
			<path style="fill:none;stroke:#263238;stroke-width:2;stroke-linecap:round;stroke-linejoin:round;stroke-miterlimit:10;" d="
				M43.236,94.773v3.846"/>
			<path style="fill:none;stroke:#263238;stroke-width:2;stroke-linecap:round;stroke-linejoin:round;stroke-miterlimit:10;" d="
				M43.236,102.955v3.846"/>
			<path style="fill:none;stroke:#263238;stroke-width:2;stroke-linecap:round;stroke-linejoin:round;stroke-miterlimit:10;" d="
				M37.222,100.787h3.846"/>
			<path style="fill:none;stroke:#263238;stroke-width:2;stroke-linecap:round;stroke-linejoin:round;stroke-miterlimit:10;" d="
				M45.405,100.787h3.846"/>
		</g>
		<g>
			<path style="fill:none;stroke:#263238;stroke-width:2;stroke-linecap:round;stroke-linejoin:round;stroke-miterlimit:10;" d="
				M448.457,198.684v3.846"/>
			<path style="fill:none;stroke:#263238;stroke-width:2;stroke-linecap:round;stroke-linejoin:round;stroke-miterlimit:10;" d="
				M448.457,206.867v3.846"/>
			<path style="fill:none;stroke:#263238;stroke-width:2;stroke-linecap:round;stroke-linejoin:round;stroke-miterlimit:10;" d="
				M442.443,204.699h3.846"/>
			<path style="fill:none;stroke:#263238;stroke-width:2;stroke-linecap:round;stroke-linejoin:round;stroke-miterlimit:10;" d="
				M450.625,204.699h3.847"/>
		</g>
		<g>
			<path style="fill:none;stroke:#263238;stroke-width:2;stroke-linecap:round;stroke-linejoin:round;stroke-miterlimit:10;" d="
				M43.236,413.98v3.846"/>
			<path style="fill:none;stroke:#263238;stroke-width:2;stroke-linecap:round;stroke-linejoin:round;stroke-miterlimit:10;" d="
				M43.236,422.163v3.846"/>
			<path style="fill:none;stroke:#263238;stroke-width:2;stroke-linecap:round;stroke-linejoin:round;stroke-miterlimit:10;" d="
				M37.222,419.994h3.846"/>
			<path style="fill:none;stroke:#263238;stroke-width:2;stroke-linecap:round;stroke-linejoin:round;stroke-miterlimit:10;" d="
				M45.404,419.994h3.847"/>
		</g>
		<g>
			<path style="fill:none;stroke:#263238;stroke-width:2;stroke-linecap:round;stroke-linejoin:round;stroke-miterlimit:10;" d="
				M363.84,453.27v3.846"/>
			<path style="fill:none;stroke:#263238;stroke-width:2;stroke-linecap:round;stroke-linejoin:round;stroke-miterlimit:10;" d="
				M363.84,461.453v3.846"/>
			<path style="fill:none;stroke:#263238;stroke-width:2;stroke-linecap:round;stroke-linejoin:round;stroke-miterlimit:10;" d="
				M357.826,459.284h3.846"/>
			<path style="fill:none;stroke:#263238;stroke-width:2;stroke-linecap:round;stroke-linejoin:round;stroke-miterlimit:10;" d="
				M366.008,459.284h3.847"/>
		</g>
		<g>
			<path style="fill:none;stroke:#263238;stroke-width:2;stroke-linecap:round;stroke-linejoin:round;stroke-miterlimit:10;" d="
				M296.094,38.33v3.846"/>
			<path style="fill:none;stroke:#263238;stroke-width:2;stroke-linecap:round;stroke-linejoin:round;stroke-miterlimit:10;" d="
				M296.094,46.513v3.846"/>
			<path style="fill:none;stroke:#263238;stroke-width:2;stroke-linecap:round;stroke-linejoin:round;stroke-miterlimit:10;" d="
				M290.079,44.345h3.847"/>
			<path style="fill:none;stroke:#263238;stroke-width:2;stroke-linecap:round;stroke-linejoin:round;stroke-miterlimit:10;" d="
				M298.262,44.345h3.846"/>
		</g>
	</g>
</g>
<g id="Sun">
	<g id="Layer-8_2_">
		<path style="fill:#FFC051;" d="M53.044,183.862c0-72.534,58.801-131.335,131.335-131.335s131.335,58.801,131.335,131.335
			s-58.801,131.335-131.335,131.335S53.044,256.396,53.044,183.862z"/>
	</g>
</g>
<g id="Bird">
	<g id="Layer-14_2_">
		<path style="fill:#263238;" d="M379.863,139.806c-0.541-1.181,11.386-3.025,14.606-0.125c4.176,3.761,5.816,10.504,5.816,10.504
			s5.557-9.506,13.909-10.129c5.355-0.4,10.511,1.806,10.113,2.746c-0.22,0.518-7.163-0.796-13.299,2.646
			c-5.349,3-11.249,10.139-11.795,10.088c-0.624-0.057-4.489-10.98-8.11-12.728C387.483,141.06,380.049,140.214,379.863,139.806z"/>
	</g>
</g>
<g id="Cloud">
	<g id="Layer-10_1_">
		<path style="fill:none;stroke:#FF367C;stroke-width:2;stroke-linecap:round;stroke-linejoin:round;stroke-miterlimit:10;" d="
			M409.081,89.9c15.565,0,12.932-15.331,6.573-18.667c-12.187-6.393-21.501,3.694-21.501,3.694s0.282-13.192-14.885-13.364
			c-14.903-0.169-17.026,13.364-17.026,13.364s-7.189-6.094-16.117-1.2c-5.297,2.904-8.286,15.976,4.684,16.1
			C373.924,90.047,390.426,89.9,409.081,89.9z"/>
	</g>
</g>
<g id="Pyramid_2">
	<g>
		<path style="fill:none;stroke:#FF367C;stroke-width:2;stroke-linecap:round;stroke-linejoin:round;stroke-miterlimit:10;" d="
			M260.029,338.864l103.469-167.058l104.155,169.015"/>
		<path style="fill:none;stroke:#FF367C;stroke-width:2;stroke-linecap:round;stroke-linejoin:round;stroke-miterlimit:10;" d="
			M363.841,173.153l-58.953,158.548"/>
		
			<path style="opacity:0.9981;fill:none;stroke:#FF367C;stroke-width:2;stroke-linecap:round;stroke-linejoin:round;stroke-miterlimit:10;enable-background:new    ;" d="
			M359.36,218.243h15.779"/>
		
			<path style="opacity:0.9981;fill:none;stroke:#FF367C;stroke-width:2;stroke-linecap:round;stroke-linejoin:round;stroke-miterlimit:10;enable-background:new    ;" d="
			M370.304,204.699h9.47"/>
		
			<path style="opacity:0.9981;fill:none;stroke:#FF367C;stroke-width:2;stroke-linecap:round;stroke-linejoin:round;stroke-miterlimit:10;enable-background:new    ;" d="
			M362.458,227.765h27.757"/>
		
			<path style="opacity:0.9981;fill:none;stroke:#FF367C;stroke-width:2;stroke-linecap:round;stroke-linejoin:round;stroke-miterlimit:10;enable-background:new    ;" d="
			M369.832,240.694h15.778"/>
		
			<path style="opacity:0.9981;fill:none;stroke:#FF367C;stroke-width:2;stroke-linecap:round;stroke-linejoin:round;stroke-miterlimit:10;enable-background:new    ;" d="
			M353.371,245.455h27.758"/>
		
			<path style="opacity:0.9981;fill:none;stroke:#FF367C;stroke-width:2;stroke-linecap:round;stroke-linejoin:round;stroke-miterlimit:10;enable-background:new    ;" d="
			M384.183,258.67h19.362"/>
		
			<path style="opacity:0.9981;fill:none;stroke:#FF367C;stroke-width:2;stroke-linecap:round;stroke-linejoin:round;stroke-miterlimit:10;enable-background:new    ;" d="
			M362.458,268.193h54.162"/>
		
			<path style="opacity:0.9981;fill:none;stroke:#FF367C;stroke-width:2;stroke-linecap:round;stroke-linejoin:round;stroke-miterlimit:10;enable-background:new    ;" d="
			M361.943,281.35h15.778"/>
		
			<path style="opacity:0.9981;fill:none;stroke:#FF367C;stroke-width:2;stroke-linecap:round;stroke-linejoin:round;stroke-miterlimit:10;enable-background:new    ;" d="
			M334.264,288.539h32.986"/>
		
			<path style="opacity:0.9981;fill:none;stroke:#FF367C;stroke-width:2;stroke-linecap:round;stroke-linejoin:round;stroke-miterlimit:10;enable-background:new    ;" d="
			M406.785,293.497h24.35"/>
		
			<path style="opacity:0.9981;fill:none;stroke:#FF367C;stroke-width:2;stroke-linecap:round;stroke-linejoin:round;stroke-miterlimit:10;enable-background:new    ;" d="
			M387.201,300.686h27.758"/>
	</g>
</g>
<g id="Dunes_2">
	<path style="fill:none;stroke:#263238;stroke-width:2;stroke-linecap:round;stroke-linejoin:round;stroke-miterlimit:10;" d="
		M26.69,339.482c0,0,60.652-23.151,81.106-24.258c42.778-0.027,165.842,33.138,165.842,33.138"/>
	<path style="fill:none;stroke:#263238;stroke-width:2;stroke-linecap:round;stroke-linejoin:round;stroke-miterlimit:10;" d="
		M475.851,343.979c0,0-64.13-22.03-84.584-23.138c-28.809-0.014-145.373,19.98-145.373,19.98"/>
	<path style="fill:none;stroke:#263238;stroke-width:2;stroke-linecap:round;stroke-linejoin:round;stroke-miterlimit:10;" d="
		M33.449,389.411c0,0,27.83-15.634,46.243-16.575c40.244-3.964,104.686,22.845,104.686,22.845"/>
	<path style="fill:none;stroke:#263238;stroke-width:2;stroke-linecap:round;stroke-linejoin:round;stroke-miterlimit:10;" d="
		M315.714,384.059c0,0,73.332-29.739,99.245-28.973c25.913,0.766,60.892,17.351,60.892,17.351"/>
</g>
<g id="Pyramid_1">
	<g>
		<path style="fill:#FF367C;" d="M51.949,452.678l180.834,1.286c0.258-0.595-0.009,0,0,0c13.945-0.373,45.174-17.381,45.174-17.381
			s43.167-22.49,77.327-25.505c31.715-1.329,37.84,1.264,49.215,4.546c0.137,0.039,15.022,5.533,15.022,5.533l-174.319-278.57
			c-0.056-0.089-0.185-0.089-0.24,0L51.949,452.678z"/>
		<polygon style="opacity:0.2;fill:#FFFFFF;" points="244.96,142.59 135.5,453.27 51.95,452.68 		"/>
		
			<path style="opacity:0.9981;fill:none;stroke:#FFFFFF;stroke-width:2;stroke-linecap:round;stroke-linejoin:round;stroke-miterlimit:10;enable-background:new    ;" d="
			M228.093,204.602h29.996"/>
		
			<path style="opacity:0.9981;fill:none;stroke:#FFFFFF;stroke-width:2;stroke-linecap:round;stroke-linejoin:round;stroke-miterlimit:10;enable-background:new    ;" d="
			M248.897,178.854h14.101"/>
		
			<path style="opacity:0.9981;fill:none;stroke:#FFFFFF;stroke-width:2;stroke-linecap:round;stroke-linejoin:round;stroke-miterlimit:10;enable-background:new    ;" d="
			M233.981,222.704h52.77"/>
		
			<path style="opacity:0.9981;fill:none;stroke:#FFFFFF;stroke-width:2;stroke-linecap:round;stroke-linejoin:round;stroke-miterlimit:10;enable-background:new    ;" d="
			M248,247.284h29.996"/>
		
			<path style="opacity:0.9981;fill:none;stroke:#FFFFFF;stroke-width:2;stroke-linecap:round;stroke-linejoin:round;stroke-miterlimit:10;enable-background:new    ;" d="
			M286.751,405.533h29.996"/>
		
			<path style="opacity:0.9981;fill:none;stroke:#FFFFFF;stroke-width:2;stroke-linecap:round;stroke-linejoin:round;stroke-miterlimit:10;enable-background:new    ;" d="
			M216.706,256.335h52.77"/>
		
			<path style="opacity:0.9981;fill:none;stroke:#FFFFFF;stroke-width:2;stroke-linecap:round;stroke-linejoin:round;stroke-miterlimit:10;enable-background:new    ;" d="
			M275.282,281.458h36.81"/>
		
			<path style="opacity:0.9981;fill:none;stroke:#FFFFFF;stroke-width:2;stroke-linecap:round;stroke-linejoin:round;stroke-miterlimit:10;enable-background:new    ;" d="
			M233.981,299.56h102.968"/>
		
			<path style="opacity:0.9981;fill:none;stroke:#FFFFFF;stroke-width:2;stroke-linecap:round;stroke-linejoin:round;stroke-miterlimit:10;enable-background:new    ;" d="
			M232.908,375.194h-22.589"/>
		
			<path style="opacity:0.9981;fill:none;stroke:#FFFFFF;stroke-width:2;stroke-linecap:round;stroke-linejoin:round;stroke-miterlimit:10;enable-background:new    ;" d="
			M191.607,393.297h112.159"/>
		
			<path style="opacity:0.9981;fill:none;stroke:#FFFFFF;stroke-width:2;stroke-linecap:round;stroke-linejoin:round;stroke-miterlimit:10;enable-background:new    ;" d="
			M233.002,324.574h29.996"/>
		
			<path style="opacity:0.9981;fill:none;stroke:#FFFFFF;stroke-width:2;stroke-linecap:round;stroke-linejoin:round;stroke-miterlimit:10;enable-background:new    ;" d="
			M180.382,338.241h62.709"/>
		
			<path style="opacity:0.9981;fill:none;stroke:#FFFFFF;stroke-width:2;stroke-linecap:round;stroke-linejoin:round;stroke-miterlimit:10;enable-background:new    ;" d="
			M323.982,347.818h37.961"/>
		
			<path style="opacity:0.9981;fill:none;stroke:#FFFFFF;stroke-width:2;stroke-linecap:round;stroke-linejoin:round;stroke-miterlimit:10;enable-background:new    ;" d="
			M303.766,361.485h35.755"/>
	</g>
</g>
<g id="Dunes_1">
	<path style="fill:none;stroke:#263238;stroke-width:2;stroke-linecap:round;stroke-linejoin:round;stroke-miterlimit:10;" d="
		M23.936,453.27l208.23,1.471c27.329,0,73.67-41.121,131.833-43.455c59.308-2.381,116.702,43.907,116.702,43.907"/>
</g>
<g id="Trees">
	<path style="fill:#FF367C;" d="M67.6,250.038l0.951,17.92c0,0-1.804-5.595-5.227-7.019c-9.253-3.846-11.984,3.513-11.984,3.513
		l14.988,7.306c0,0-5.907,0.914-8.677,2.579c-7.372,4.434-2.924,11.789-2.924,11.789l12.943-9.454
		c-0.763,3.557-2.057,14.633-1.099,28.278c0.78,11.124,2.592,20.252,2.592,20.252l5.591-1.916c0,0-2.534-11.931-3.281-19.149
		c-1.381-13.354-1.461-24.353-1.284-27.416l11.113,11.262c0,0,3.881-6.86,0.085-11.936c-2.162-2.892-4.568-3.904-6.534-4.205
		l15.961-0.974c0,0-3.327-6.568-8.541-6.19c-6.429,0.466-10.423,3.821-10.423,3.821s3.167-3.474,4.423-9.371
		C77.847,251.742,67.6,250.038,67.6,250.038z"/>
	<path style="fill:#263238;" d="M114.548,264.059c0,0-8.825,1.825-7.229,7.016c1.273,4.146,4.392,7.518,4.392,7.518
		s-3.308-2.225-8.338-1.661c-5.245,0.587-5.49,6.976-5.49,6.976l14.727-1.45c0.305,2.23,0.763,10.199,0.309,19.019
		c-0.251,4.852-1.827,13.795-1.827,13.795l5.093,1.059c0,0,1.488-7.491,1.439-14.954c-0.073-11.165-1.78-15.756-2.621-18.381
		l11.835,6.119c0-0.001,3.622-5.527-2.905-8.26c-2.452-1.027-7.606-1.326-7.606-1.326l12.747-6.133c0,0-2.598-5.1-10.494-1.796
		c-2.922,1.223-4.293,5.332-4.293,5.332L114.548,264.059z"/>
	<path style="fill:#263238;" d="M402.92,292.193l-4.525,27.443c0,0-0.819-9.079-5.42-12.391
		c-12.434-8.951-18.917,1.264-18.917,1.264l19.785,16.127c0,0-9.053-0.616-13.707,0.967c-12.389,4.217-8.235,16.853-8.235,16.853
		l22.304-9.929c-2.308,5.125-7.891,21.45-10.991,42.425c-2.527,17.1-3.552,36.394-3.552,36.394l7.788,1.747
		c0,0,0.926-26.212,2.21-37.388c2.375-20.679,6.985-37.677,8.261-42.253l12.734,20.804c0,0,8.021-9.07,4.078-18.036
		c-2.246-5.107-5.475-7.453-8.287-8.574l23.968,3.924c0,0-2.754-11.064-10.603-12.256c-9.679-1.47-16.707,2.258-16.707,2.258
		s5.843-4.187,9.656-12.687C417.536,298.239,402.92,292.194,402.92,292.193z"/>
	<path style="fill:#263238;" d="M272.38,336.429c0,0-14.408,3.52-11.803,13.536c2.079,7.996,6.741,12.416,6.741,12.416
		s-5.829-4.146-14.948-4.05c-7.395,0.078-11.777,9.512-11.777,9.512l22.595-0.479c-2.755,0.652-6.089,2.343-8.979,6.554
		c-5.109,7.443,0.719,16.466,0.719,16.466l15.241-16.919c0.499,4.303,2.048,18.477,1.305,35.491
		c-0.408,9.359-3.627,33.437-3.627,33.437l7.278-2.796c-0.001,0,1.685-16.006,1.838-30.402c0.181-17.045-2.468-31.171-3.841-36.236
		l19.321,11.803c0,0,5.915-10.66-4.742-15.933c-4.003-1.981-12.417-2.558-12.417-2.558l20.81-11.83c0,0-4.24-9.838-17.133-3.464
		c-4.77,2.359-7.007,10.285-7.007,10.285L272.38,336.429z"/>
</g>
<g id="Camel">
	<g>
		<path style="fill:#263238;" d="M140.03,385.249c-0.721,0.083-0.793,2.6-0.778,4.744c-3.218,0.592-8.596,1.845-10.008,4.967
			c-1.321,2.922,5.297,3.567,10.23,3.817c-2.306,8.983-4.017,21.997,4.336,28.872c4.901,4.034,9.95,1.982,13.64-0.593l-4.782,26.686
			l3.484,0.63l4.114-22.942l-0.815,23.201l3.558,0.112l0.889-26.241c2.928,1.125,6.219,1.816,9.748,1.816
			c2.587,0,5.046-0.375,7.339-1.001l-0.853,24.981l3.558,0.111l0.89-26.389c0.396-0.177,0.807-0.324,1.186-0.519l-0.297,26.871
			l3.558,0.037l0.334-29.317c3.363-2.765,5.485-6.372,5.485-10.378c0-4.725-2.913-8.921-7.412-11.786
			c-0.38-1.996-3.096-15.793-7.672-15.789c-2.953,0.003-4.599,6.599-5.597,11.712c-1.209-5-3.199-11.715-6.634-11.712
			c-3.755,0.004-5.678,11.366-6.227,14.9c-3.18,1.687-5.707,4.005-7.227,6.708L142.81,390.29
			C142.073,387.839,141.076,385.129,140.03,385.249z"/>
		<path style="fill:none;stroke:#263238;stroke-width:2;stroke-linecap:round;stroke-linejoin:round;stroke-miterlimit:10;" d="
			M191.601,408.442l8.654,20.671"/>
		<path style="fill:#263238;" d="M199.04,426.171l-0.136,8.758l6.453-2.924L199.04,426.171z"/>
	</g>
</g>
</svg>
